<svg width="16" height="20" viewBox="0 0 16 20" fill="none" xmlns="http://www.w3.org/2000/svg">
<path fill-rule="evenodd" clip-rule="evenodd" d="M3.2 14.7999C3.2 15.2399 3.56 15.5999 4 15.5999H4.8V18.3999C4.8 19.0639 5.336 19.5999 6 19.5999C6.664 19.5999 7.2 19.0639 7.2 18.3999V15.5999H8.8V18.3999C8.8 19.0639 9.336 19.5999 10 19.5999C10.664 19.5999 11.2 19.0639 11.2 18.3999V15.5999H12C12.44 15.5999 12.8 15.2399 12.8 14.7999V6.7999H3.2V14.7999ZM1.2 6.7999C0.536 6.7999 0 7.3359 0 7.9999V13.5999C0 14.2639 0.536 14.7999 1.2 14.7999C1.864 14.7999 2.4 14.2639 2.4 13.5999V7.9999C2.4 7.3359 1.864 6.7999 1.2 6.7999ZM14.8 6.7999C14.136 6.7999 13.6 7.3359 13.6 7.9999V13.5999C13.6 14.2639 14.136 14.7999 14.8 14.7999C15.464 14.7999 16 14.2639 16 13.5999V7.9999C16 7.3359 15.464 6.7999 14.8 6.7999ZM10.824 2.1279L11.864 1.0879C12.024 0.927902 12.024 0.679902 11.864 0.519902C11.704 0.359902 11.456 0.359902 11.296 0.519902L10.112 1.7039C9.48 1.3839 8.76 1.1999 8 1.1999C7.232 1.1999 6.512 1.3839 5.872 1.7039L4.68 0.519902C4.52 0.359902 4.272 0.359902 4.112 0.519902C3.952 0.679902 3.952 0.927902 4.112 1.0879L5.16 2.1359C3.976 3.0079 3.2 4.4079 3.2 5.9999H12.8C12.8 4.4079 12.024 2.9999 10.824 2.1279ZM6.4 4.3999H5.6V3.5999H6.4V4.3999ZM10.4 4.3999H9.6V3.5999H10.4V4.3999Z" fill="#C3CAD9"/>
</svg>
