<svg width="15" height="17" viewBox="0 0 15 17" fill="none" xmlns="http://www.w3.org/2000/svg">
<path fill-rule="evenodd" clip-rule="evenodd" d="M8.15718 1.62355C9.23185 0.207101 10.7259 0.200195 10.7259 0.200195C10.7259 0.200195 10.9481 1.5319 9.8805 2.81476C8.74054 4.18456 7.44481 3.96042 7.44481 3.96042C7.44481 3.96042 7.20151 2.88311 8.15718 1.62355ZM7.5815 4.89327C8.13437 4.89327 9.16046 4.13329 10.4961 4.13329C12.7951 4.13329 13.6995 5.76919 13.6995 5.76919C13.6995 5.76919 11.9306 6.67359 11.9306 8.86807C11.9306 11.3436 14.1342 12.1968 14.1342 12.1968C14.1342 12.1968 12.5938 16.5324 10.5132 16.5324C9.55756 16.5324 8.81462 15.8884 7.80774 15.8884C6.78165 15.8884 5.7634 16.5564 5.10021 16.5564C3.2003 16.5564 0.800049 12.4437 0.800049 9.13773C0.800049 5.88513 2.8317 4.17886 4.73731 4.17886C5.97613 4.17886 6.93747 4.89327 7.5815 4.89327Z" fill="#C3CAD9"/>
<mask id="mask0_0_133" style="mask-type:alpha" maskUnits="userSpaceOnUse" x="0" y="0" width="15" height="17">
<path fill-rule="evenodd" clip-rule="evenodd" d="M8.15718 1.62355C9.23185 0.207101 10.7259 0.200195 10.7259 0.200195C10.7259 0.200195 10.9481 1.5319 9.8805 2.81476C8.74054 4.18456 7.44481 3.96042 7.44481 3.96042C7.44481 3.96042 7.20151 2.88311 8.15718 1.62355ZM7.5815 4.89327C8.13437 4.89327 9.16046 4.13329 10.4961 4.13329C12.7951 4.13329 13.6995 5.76919 13.6995 5.76919C13.6995 5.76919 11.9306 6.67359 11.9306 8.86807C11.9306 11.3436 14.1342 12.1968 14.1342 12.1968C14.1342 12.1968 12.5938 16.5324 10.5132 16.5324C9.55756 16.5324 8.81462 15.8884 7.80774 15.8884C6.78165 15.8884 5.7634 16.5564 5.10021 16.5564C3.2003 16.5564 0.800049 12.4437 0.800049 9.13773C0.800049 5.88513 2.8317 4.17886 4.73731 4.17886C5.97613 4.17886 6.93747 4.89327 7.5815 4.89327Z" fill="white"/>
</mask>
<g mask="url(#mask0_0_133)">
</g>
</svg>
