<svg width="16" height="16" viewBox="0 0 16 16" fill="none" xmlns="http://www.w3.org/2000/svg">
<path fill-rule="evenodd" clip-rule="evenodd" d="M15.5796 2.75734C15.3756 2.23184 15.1036 1.78671 14.6584 1.34158C14.2133 0.896445 13.7682 0.62442 13.2427 0.420402C12.7357 0.222566 12.1484 0.0865533 11.3014 0.049459L11.287 0.0488338C10.4451 0.0122257 10.1639 0 8 0C5.8238 0 5.55178 0.00618238 4.69861 0.049459C3.84544 0.0865533 3.2643 0.222566 2.75734 0.420402C2.23184 0.62442 1.78671 0.896445 1.34158 1.34158C0.896445 1.78671 0.62442 2.23184 0.420402 2.75734C0.222566 3.2643 0.0865533 3.85162 0.049459 4.69861L0.0488339 4.71299C0.0122257 5.55491 0 5.83607 0 8C0 10.1762 0.00618238 10.4482 0.049459 11.3014C0.0865533 12.1546 0.222566 12.7357 0.420402 13.2427C0.62442 13.7682 0.896445 14.2133 1.34158 14.6584C1.78671 15.1036 2.23184 15.3756 2.75734 15.5796C3.2643 15.7774 3.85162 15.9134 4.69861 15.9505L4.713 15.9512C5.55491 15.9878 5.83609 16 8 16C10.1762 16 10.4482 15.9938 11.3014 15.9505C12.1546 15.9134 12.7357 15.7774 13.2427 15.5796C13.7682 15.3756 14.2133 15.1036 14.6584 14.6584C15.1036 14.2133 15.3756 13.7682 15.5796 13.2427C15.7774 12.7357 15.9134 12.1484 15.9505 11.3014L15.9512 11.287C15.9878 10.4451 16 10.1639 16 8C16 5.8238 15.9938 5.55178 15.9505 4.69861C15.9134 3.84544 15.7774 3.2643 15.5796 2.75734ZM13.9548 10.9548C13.9209 11.6667 13.8023 12.0565 13.7006 12.3107C13.5706 12.6497 13.4068 12.8983 13.1525 13.1525C12.8983 13.4068 12.6554 13.565 12.3107 13.7006C12.0508 13.8023 11.6667 13.9209 10.9548 13.9548L10.918 13.9564C10.1731 13.9891 9.92348 14 8 14C6.0452 14 5.81356 13.9944 5.0452 13.9548C4.33333 13.9209 3.9435 13.8023 3.68927 13.7006C3.35028 13.5706 3.1017 13.4068 2.84746 13.1525C2.59322 12.8983 2.43503 12.6554 2.29944 12.3107C2.19774 12.0508 2.0791 11.6667 2.0452 10.9548L2.04386 10.9242C2.011 10.1743 2 9.92325 2 8C2 6.05085 2.00565 5.81356 2.0452 5.0452C2.0791 4.33333 2.19774 3.9435 2.29944 3.68927C2.42938 3.35028 2.59322 3.1017 2.84746 2.84746C3.1017 2.59322 3.34463 2.43503 3.68927 2.29944C3.94915 2.19774 4.33333 2.0791 5.0452 2.0452L5.07577 2.04386C5.82567 2.011 6.07674 2 8 2C9.94915 2 10.1864 2.00565 10.9548 2.0452C11.6667 2.0791 12.0565 2.19774 12.3107 2.29944C12.6497 2.42938 12.8983 2.59322 13.1525 2.84746C13.4068 3.1017 13.565 3.34463 13.7006 3.68927C13.8023 3.94915 13.9209 4.33333 13.9548 5.0452L13.9561 5.07576V5.07578C13.989 5.82567 14 6.07676 14 8C14 9.93057 13.9889 10.1818 13.9558 10.933L13.9548 10.9548ZM13 4C13 4.55228 12.5523 5 12 5C11.4477 5 11 4.55228 11 4C11 3.44772 11.4477 3 12 3C12.5523 3 13 3.44772 13 4ZM8 4C5.79248 4 4 5.79248 4 8C4 10.2075 5.79248 12 8 12C10.2075 12 12 10.2075 12 8C12 5.79248 10.2075 4 8 4ZM6 8C6 9.10648 6.89815 10 8 10C9.10185 10 10 9.10185 10 8C10 6.89352 9.10648 6 8 6C6.89352 6 6 6.89815 6 8Z" fill="#C3CAD9"/>
</svg>
