<svg width="16" height="16" viewBox="0 0 16 16" fill="none" xmlns="http://www.w3.org/2000/svg">
<path fill-rule="evenodd" clip-rule="evenodd" d="M10.418 15.7861C10.2043 15.7151 9.88431 15.6441 9.70664 15.5728C9.49331 15.4664 9.24431 15.4664 8.46231 15.5018C7.71564 15.5371 7.32431 15.5018 6.79131 15.4304C3.94664 14.9331 1.67098 12.8708 0.85331 10.0264C0.710976 9.49311 0.675643 9.20878 0.675643 7.92878C0.675643 6.54178 0.639977 6.43545 0.46231 5.86645C-0.56869 3.05745 1.52898 0.106445 4.51564 0.106445C5.11998 0.106445 5.86664 0.284445 6.29331 0.497445C6.57798 0.639779 6.75564 0.675112 7.85764 0.675112C8.85331 0.675112 9.24431 0.710779 9.74198 0.853112C11.9823 1.42211 13.7953 2.87978 14.7553 4.90645C15.3596 6.15078 15.5733 7.43111 15.4306 8.88844C15.3596 9.67111 15.3596 9.74211 15.5373 10.2041C16.1063 11.8754 15.573 13.7951 14.1863 14.9331C13.7593 15.2888 12.9063 15.6798 12.373 15.8221C11.8393 15.9288 10.9863 15.9288 10.4526 15.7864H10.418V15.7861ZM9.45764 13.0484C10.6313 12.7998 11.662 12.0884 12.0533 11.2354C12.551 10.2041 12.4086 8.99511 11.7333 8.24845C11.1643 7.60845 10.311 7.25311 8.28431 6.75545C6.93298 6.43545 6.61298 6.29311 6.32864 5.97311C6.07964 5.68845 6.04398 5.47545 6.25764 5.15545C6.47098 4.79978 7.00431 4.58645 7.71531 4.55111C8.74664 4.48011 9.20864 4.72878 9.81298 5.68878C10.2753 6.40011 10.7373 6.57778 11.3423 6.29311C12.1243 5.90211 12.0533 4.62211 11.1996 3.87545C10.382 3.20011 9.49331 2.91545 7.99964 2.91545C6.43531 2.91545 5.36831 3.23545 4.65731 3.94645C4.08831 4.51545 3.98198 4.83545 3.98198 5.72411C3.98198 6.64845 4.08864 6.93278 4.69298 7.46645C5.33298 8.07078 5.86631 8.28444 7.78598 8.74644C9.13731 9.06645 9.49298 9.24411 9.81264 9.59978C9.95531 9.77778 10.0263 9.91978 10.0263 10.2398C10.0263 10.5954 9.99064 10.6664 9.70631 10.9511C9.27964 11.3774 8.63964 11.5551 7.82198 11.5201C6.86198 11.4488 6.43531 11.1644 5.93764 10.1688C5.58198 9.49345 5.29764 9.24445 4.83531 9.24445C3.80398 9.24445 3.44864 10.0978 3.98198 11.1998C4.44431 12.1601 5.36864 12.8001 6.54198 13.0488C7.25298 13.1911 8.81764 13.1911 9.49331 13.0488H9.45764V13.0484Z" fill="#C3CAD9"/>
</svg>
