<svg width="16" height="13" viewBox="0 0 16 13" fill="none" xmlns="http://www.w3.org/2000/svg">
<path fill-rule="evenodd" clip-rule="evenodd" d="M15.2 1.82006C14.6702 2.06144 14.1013 2.22436 13.5031 2.29683C14.113 1.92206 14.5815 1.32852 14.8025 0.621441C14.2313 0.968056 13.5994 1.22098 12.9265 1.35621C12.3872 0.767749 11.6193 0.399902 10.7691 0.399902C9.13742 0.399902 7.81544 1.7559 7.81544 3.42898C7.81544 3.66621 7.8411 3.8979 7.89151 4.11944C5.43615 3.99298 3.2594 2.78698 1.80194 0.95421C1.54807 1.4019 1.40224 1.92206 1.40224 2.47729C1.40224 3.52867 1.92392 4.45544 2.71612 4.99913C2.23225 4.98298 1.77673 4.84729 1.37838 4.62021C1.37793 4.63267 1.37793 4.64606 1.37793 4.65806C1.37793 6.12621 2.39609 7.35067 3.74777 7.62898C3.50021 7.69775 3.23915 7.73513 2.96953 7.73513C2.77868 7.73513 2.59414 7.71621 2.41409 7.68113C2.78949 8.8839 3.88101 9.7599 5.17328 9.78483C4.16278 10.5971 2.88896 11.0822 1.50486 11.0822C1.2663 11.0822 1.0309 11.0679 0.799988 11.0397C2.10711 11.8982 3.66 12.3999 5.32857 12.3999C10.7623 12.3999 13.7344 7.78406 13.7344 3.78067C13.7344 3.64959 13.7308 3.51852 13.7254 3.38836C14.3029 2.96144 14.8034 2.42836 15.2 1.82006Z" fill="#C3CAD9"/>
</svg>
