<svg width="24" height="24" viewBox="0 0 24 24" fill="none" xmlns="http://www.w3.org/2000/svg">
<path fill-rule="evenodd" clip-rule="evenodd" d="M8.27073 14.9609C8.08073 14.9609 7.90073 14.9309 7.75073 14.8809C7.59073 14.8209 7.46073 14.7509 7.35073 14.6409C7.24073 14.5409 7.15073 14.421 7.09073 14.271C7.03073 14.131 7.00073 13.971 7.00073 13.801H5.70073C5.70073 14.161 5.77073 14.481 5.91073 14.7509C6.05073 15.0209 6.24073 15.2509 6.47073 15.4409C6.71073 15.6208 6.98073 15.7608 7.29073 15.8508C7.59073 15.9508 7.91073 16.0008 8.25073 16.0008C8.62073 16.0008 8.97073 15.9508 9.28073 15.8508C9.60073 15.7508 9.88073 15.6008 10.1107 15.4109C10.3407 15.2209 10.5307 14.9809 10.6607 14.6909C10.7907 14.401 10.8607 14.081 10.8607 13.721C10.8607 13.531 10.8407 13.3411 10.7907 13.1611C10.7407 12.9811 10.6707 12.8111 10.5607 12.6511C10.4607 12.4912 10.3207 12.3512 10.1607 12.2212C9.99073 12.0912 9.79073 11.9912 9.55073 11.9112C9.75073 11.8212 9.92073 11.7112 10.0707 11.5812C10.2207 11.4513 10.3407 11.3113 10.4407 11.1613C10.5407 11.0113 10.6107 10.8613 10.6607 10.7013C10.7107 10.5413 10.7307 10.3814 10.7307 10.2214C10.7307 9.86141 10.6707 9.54145 10.5507 9.26147C10.4307 8.9815 10.2607 8.75153 10.0407 8.57154C9.84073 8.38156 9.57073 8.24158 9.27073 8.14159C8.96073 8.0516 8.62073 8.0016 8.25073 8.0016C7.89073 8.0016 7.56073 8.0516 7.25073 8.16158C6.95073 8.27157 6.68073 8.42156 6.46073 8.61154C6.25073 8.80152 6.08073 9.0215 5.95073 9.28147C5.83073 9.54145 5.77073 9.82142 5.77073 10.1314H7.07073C7.07073 9.9614 7.10073 9.81142 7.16073 9.68143C7.22073 9.55145 7.30073 9.43146 7.41073 9.34147C7.52073 9.25148 7.64073 9.17148 7.79073 9.12149C7.94073 9.07149 8.09073 9.0415 8.27073 9.0415C8.67073 9.0415 8.97073 9.14149 9.16073 9.35147C9.35073 9.55145 9.45073 9.84142 9.45073 10.2114C9.45073 10.3914 9.42073 10.5513 9.37073 10.7013C9.32073 10.8513 9.23073 10.9713 9.12073 11.0713C9.01073 11.1713 8.87073 11.2513 8.71073 11.3113C8.55073 11.3713 8.35073 11.4013 8.13073 11.4013H7.36073V12.4312H8.13073C8.35073 12.4312 8.55073 12.4512 8.73073 12.5012C8.91073 12.5511 9.06073 12.6311 9.18073 12.7311C9.30073 12.8411 9.40073 12.9711 9.47073 13.1311C9.54073 13.2911 9.57073 13.4811 9.57073 13.701C9.57073 14.111 9.45073 14.421 9.22073 14.6309C8.99073 14.8609 8.67073 14.9609 8.27073 14.9609V14.9609ZM17.5707 10.2414C17.3907 9.77142 17.1407 9.37146 16.8207 9.0415C16.5007 8.71153 16.1207 8.45156 15.6807 8.27157C15.2507 8.09159 14.7607 8.0016 14.2207 8.0016H11.8607V16.0008H14.1607C14.7107 16.0008 15.2207 15.9108 15.6707 15.7308C16.1207 15.5508 16.5107 15.3009 16.8307 14.9709C17.1507 14.6409 17.4007 14.241 17.5707 13.781C17.7407 13.3111 17.8307 12.7911 17.8307 12.2112V11.8112C17.8307 11.2313 17.7407 10.7113 17.5707 10.2414V10.2414ZM16.4407 12.2012C16.4407 12.6211 16.3907 12.9911 16.3007 13.3311C16.2007 13.661 16.0607 13.951 15.8707 14.181C15.6807 14.411 15.4407 14.5909 15.1607 14.7109C14.8707 14.8309 14.5407 14.8909 14.1707 14.8909H13.2607V9.11149H14.2307C14.9507 9.11149 15.5007 9.34147 15.8707 9.80142C16.2507 10.2614 16.4407 10.9213 16.4407 11.7912V12.2012ZM15.0107 3.84202L16.3407 2.51215C19.4307 3.972 21.6807 6.88171 22.2307 10.3714C22.2907 10.7813 22.6707 11.0613 23.0907 10.9913C23.5007 10.9313 23.7807 10.5413 23.7107 10.1314C23.1107 6.32177 20.7507 3.12209 17.4707 1.38226C15.8007 0.492352 13.6407 -0.127586 11.2007 0.0223988L15.0107 3.84202ZM8.71073 20.1504L7.38073 21.4803C4.29073 20.0204 2.04073 17.1107 1.49073 13.621C1.43073 13.2111 1.05073 12.9311 0.630731 13.0011C0.220731 13.0611 -0.0592689 13.4511 0.0107311 13.861C0.610731 17.6706 2.97073 20.8703 6.25073 22.6101C7.92073 23.5001 10.0807 24.12 12.5207 23.97L8.71073 20.1504Z" fill="#E62E2E"/>
<mask id="mask0_52_178" style="mask-type:alpha" maskUnits="userSpaceOnUse" x="0" y="0" width="24" height="24">
<path fill-rule="evenodd" clip-rule="evenodd" d="M8.27073 14.9609C8.08073 14.9609 7.90073 14.9309 7.75073 14.8809C7.59073 14.8209 7.46073 14.7509 7.35073 14.6409C7.24073 14.5409 7.15073 14.421 7.09073 14.271C7.03073 14.131 7.00073 13.971 7.00073 13.801H5.70073C5.70073 14.161 5.77073 14.481 5.91073 14.7509C6.05073 15.0209 6.24073 15.2509 6.47073 15.4409C6.71073 15.6208 6.98073 15.7608 7.29073 15.8508C7.59073 15.9508 7.91073 16.0008 8.25073 16.0008C8.62073 16.0008 8.97073 15.9508 9.28073 15.8508C9.60073 15.7508 9.88073 15.6008 10.1107 15.4109C10.3407 15.2209 10.5307 14.9809 10.6607 14.6909C10.7907 14.401 10.8607 14.081 10.8607 13.721C10.8607 13.531 10.8407 13.3411 10.7907 13.1611C10.7407 12.9811 10.6707 12.8111 10.5607 12.6511C10.4607 12.4912 10.3207 12.3512 10.1607 12.2212C9.99073 12.0912 9.79073 11.9912 9.55073 11.9112C9.75073 11.8212 9.92073 11.7112 10.0707 11.5812C10.2207 11.4513 10.3407 11.3113 10.4407 11.1613C10.5407 11.0113 10.6107 10.8613 10.6607 10.7013C10.7107 10.5413 10.7307 10.3814 10.7307 10.2214C10.7307 9.86141 10.6707 9.54145 10.5507 9.26147C10.4307 8.9815 10.2607 8.75153 10.0407 8.57154C9.84073 8.38156 9.57073 8.24158 9.27073 8.14159C8.96073 8.0516 8.62073 8.0016 8.25073 8.0016C7.89073 8.0016 7.56073 8.0516 7.25073 8.16158C6.95073 8.27157 6.68073 8.42156 6.46073 8.61154C6.25073 8.80152 6.08073 9.0215 5.95073 9.28147C5.83073 9.54145 5.77073 9.82142 5.77073 10.1314H7.07073C7.07073 9.9614 7.10073 9.81142 7.16073 9.68143C7.22073 9.55145 7.30073 9.43146 7.41073 9.34147C7.52073 9.25148 7.64073 9.17148 7.79073 9.12149C7.94073 9.07149 8.09073 9.0415 8.27073 9.0415C8.67073 9.0415 8.97073 9.14149 9.16073 9.35147C9.35073 9.55145 9.45073 9.84142 9.45073 10.2114C9.45073 10.3914 9.42073 10.5513 9.37073 10.7013C9.32073 10.8513 9.23073 10.9713 9.12073 11.0713C9.01073 11.1713 8.87073 11.2513 8.71073 11.3113C8.55073 11.3713 8.35073 11.4013 8.13073 11.4013H7.36073V12.4312H8.13073C8.35073 12.4312 8.55073 12.4512 8.73073 12.5012C8.91073 12.5511 9.06073 12.6311 9.18073 12.7311C9.30073 12.8411 9.40073 12.9711 9.47073 13.1311C9.54073 13.2911 9.57073 13.4811 9.57073 13.701C9.57073 14.111 9.45073 14.421 9.22073 14.6309C8.99073 14.8609 8.67073 14.9609 8.27073 14.9609V14.9609ZM17.5707 10.2414C17.3907 9.77142 17.1407 9.37146 16.8207 9.0415C16.5007 8.71153 16.1207 8.45156 15.6807 8.27157C15.2507 8.09159 14.7607 8.0016 14.2207 8.0016H11.8607V16.0008H14.1607C14.7107 16.0008 15.2207 15.9108 15.6707 15.7308C16.1207 15.5508 16.5107 15.3009 16.8307 14.9709C17.1507 14.6409 17.4007 14.241 17.5707 13.781C17.7407 13.3111 17.8307 12.7911 17.8307 12.2112V11.8112C17.8307 11.2313 17.7407 10.7113 17.5707 10.2414V10.2414ZM16.4407 12.2012C16.4407 12.6211 16.3907 12.9911 16.3007 13.3311C16.2007 13.661 16.0607 13.951 15.8707 14.181C15.6807 14.411 15.4407 14.5909 15.1607 14.7109C14.8707 14.8309 14.5407 14.8909 14.1707 14.8909H13.2607V9.11149H14.2307C14.9507 9.11149 15.5007 9.34147 15.8707 9.80142C16.2507 10.2614 16.4407 10.9213 16.4407 11.7912V12.2012ZM15.0107 3.84202L16.3407 2.51215C19.4307 3.972 21.6807 6.88171 22.2307 10.3714C22.2907 10.7813 22.6707 11.0613 23.0907 10.9913C23.5007 10.9313 23.7807 10.5413 23.7107 10.1314C23.1107 6.32177 20.7507 3.12209 17.4707 1.38226C15.8007 0.492352 13.6407 -0.127586 11.2007 0.0223988L15.0107 3.84202ZM8.71073 20.1504L7.38073 21.4803C4.29073 20.0204 2.04073 17.1107 1.49073 13.621C1.43073 13.2111 1.05073 12.9311 0.630731 13.0011C0.220731 13.0611 -0.0592689 13.4511 0.0107311 13.861C0.610731 17.6706 2.97073 20.8703 6.25073 22.6101C7.92073 23.5001 10.0807 24.12 12.5207 23.97L8.71073 20.1504Z" fill="white"/>
</mask>
<g mask="url(#mask0_52_178)">
</g>
</svg>
