<svg width="16" height="22" viewBox="0 0 16 22" fill="none" xmlns="http://www.w3.org/2000/svg">
<path fill-rule="evenodd" clip-rule="evenodd" d="M10.4202 4C11.5202 4 12.4202 3.1 12.4202 2C12.4202 0.9 11.5202 0 10.4202 0C9.32022 0 8.42022 0.9 8.42022 2C8.42022 3.1 9.32022 4 10.4202 4ZM7.25022 16L7.82022 13.5L9.92022 15.5V20.5C9.92022 21.05 10.3702 21.5 10.9202 21.5C11.4702 21.5 11.9202 21.05 11.9202 20.5V14.86C11.9202 14.31 11.7002 13.79 11.3002 13.41L9.82022 12L10.4202 9C11.4902 10.24 13.0402 11.13 14.7802 11.41C15.3802 11.5 15.9202 11.02 15.9202 10.41C15.9202 9.92 15.5602 9.51 15.0702 9.43C13.5502 9.18 12.2902 8.28 11.6202 7.1L10.6202 5.5C10.2202 4.9 9.62022 4.5 8.92022 4.5C8.62022 4.5 8.42022 4.6 8.12022 4.6L4.14022 6.28C3.40022 6.6 2.92022 7.32 2.92022 8.13V10.5C2.92022 11.05 3.37022 11.5 3.92022 11.5C4.47022 11.5 4.92022 11.05 4.92022 10.5V8.1L6.72022 7.4L5.12022 15.5L1.20022 14.7C0.660216 14.59 0.130216 14.94 0.0202159 15.48V15.52C-0.0897841 16.06 0.260216 16.59 0.800216 16.7L4.91022 17.52C5.97022 17.73 7.01022 17.06 7.25022 16Z" fill="#FF6633"/>
<mask id="mask0_52_216" style="mask-type:alpha" maskUnits="userSpaceOnUse" x="0" y="0" width="16" height="22">
<path fill-rule="evenodd" clip-rule="evenodd" d="M10.4202 4C11.5202 4 12.4202 3.1 12.4202 2C12.4202 0.9 11.5202 0 10.4202 0C9.32022 0 8.42022 0.9 8.42022 2C8.42022 3.1 9.32022 4 10.4202 4ZM7.25022 16L7.82022 13.5L9.92022 15.5V20.5C9.92022 21.05 10.3702 21.5 10.9202 21.5C11.4702 21.5 11.9202 21.05 11.9202 20.5V14.86C11.9202 14.31 11.7002 13.79 11.3002 13.41L9.82022 12L10.4202 9C11.4902 10.24 13.0402 11.13 14.7802 11.41C15.3802 11.5 15.9202 11.02 15.9202 10.41C15.9202 9.92 15.5602 9.51 15.0702 9.43C13.5502 9.18 12.2902 8.28 11.6202 7.1L10.6202 5.5C10.2202 4.9 9.62022 4.5 8.92022 4.5C8.62022 4.5 8.42022 4.6 8.12022 4.6L4.14022 6.28C3.40022 6.6 2.92022 7.32 2.92022 8.13V10.5C2.92022 11.05 3.37022 11.5 3.92022 11.5C4.47022 11.5 4.92022 11.05 4.92022 10.5V8.1L6.72022 7.4L5.12022 15.5L1.20022 14.7C0.660216 14.59 0.130216 14.94 0.0202159 15.48V15.52C-0.0897841 16.06 0.260216 16.59 0.800216 16.7L4.91022 17.52C5.97022 17.73 7.01022 17.06 7.25022 16Z" fill="white"/>
</mask>
<g mask="url(#mask0_52_216)">
</g>
</svg>
