<svg width="22" height="20" viewBox="0 0 22 20" fill="none" xmlns="http://www.w3.org/2000/svg">
<path fill-rule="evenodd" clip-rule="evenodd" d="M20 0H2C0.9 0 0 0.9 0 2V14C0 15.1 0.9 16 2 16H9L7.37 18.45C6.93 19.11 7.4 20 8.2 20H13.8C14.6 20 15.08 19.11 14.63 18.45L13 16H20C21.1 16 22 15.1 22 14V2C22 0.9 21.1 0 20 0ZM20 12H2V3C2 2.45 2.45 2 3 2H19C19.55 2 20 2.45 20 3V12Z" fill="#FF6633"/>
<mask id="mask0_52_308" style="mask-type:alpha" maskUnits="userSpaceOnUse" x="0" y="0" width="22" height="20">
<path fill-rule="evenodd" clip-rule="evenodd" d="M20 0H2C0.9 0 0 0.9 0 2V14C0 15.1 0.9 16 2 16H9L7.37 18.45C6.93 19.11 7.4 20 8.2 20H13.8C14.6 20 15.08 19.11 14.63 18.45L13 16H20C21.1 16 22 15.1 22 14V2C22 0.9 21.1 0 20 0ZM20 12H2V3C2 2.45 2.45 2 3 2H19C19.55 2 20 2.45 20 3V12Z" fill="white"/>
</mask>
<g mask="url(#mask0_52_308)">
</g>
</svg>
