<svg width="85" height="55" viewBox="0 0 85 55" fill="none" xmlns="http://www.w3.org/2000/svg">
<path opacity="0.05" fill-rule="evenodd" clip-rule="evenodd" d="M27.5 55C42.6878 55 55 42.6878 55 27.5C55 12.3122 42.6878 0 27.5 0C12.3122 0 0 12.3122 0 27.5C0 42.6878 12.3122 55 27.5 55Z" fill="#FF6633"/>
<path opacity="0.05" fill-rule="evenodd" clip-rule="evenodd" d="M57.5 55C72.6878 55 85 42.6878 85 27.5C85 12.3122 72.6878 0 57.5 0C42.3122 0 30 12.3122 30 27.5C30 42.6878 42.3122 55 57.5 55Z" fill="#8833FF"/>
<path d="M38.5 34V22.5" stroke="#8833FF" stroke-width="2" stroke-linecap="round" stroke-linejoin="round"/>
<path d="M36 38H37.5C38.6046 38 39.5 37.1046 39.5 36V35" stroke="#FF6633" stroke-width="2" stroke-linecap="round" stroke-linejoin="round"/>
<path fill-rule="evenodd" clip-rule="evenodd" d="M32 47H38.5L34.5 34H28.5L32 47Z" stroke="#FF6633" stroke-width="2" stroke-linecap="round" stroke-linejoin="round"/>
<path fill-rule="evenodd" clip-rule="evenodd" d="M39.5613 34.2723C38.8584 34.0768 38.1319 34 37.4023 34H27C25.8954 34 25 33.1046 25 32V24.5C25 23.3954 25.8954 22.5 27 22.5H37.0323C38.0056 22.5 38.9735 22.363 39.8867 22.0262C41.5876 21.3988 44.4919 20.1735 46.5 18.5C49.5 16 52 13 52 13V43C52 43 49 39 46 37C43.9038 35.6026 41.0754 34.6933 39.5613 34.2723Z" stroke="#8833FF" stroke-width="2" stroke-linecap="round" stroke-linejoin="round"/>
<path d="M29 34V22.5" stroke="#8833FF" stroke-width="2" stroke-linecap="round" stroke-linejoin="round"/>
<rect x="52" y="11.5" width="4" height="34" rx="2" stroke="#8833FF" stroke-width="2" stroke-linecap="round" stroke-linejoin="round"/>
<path d="M56.5 24.5H58.5C59.0523 24.5 59.5 24.9477 59.5 25.5V31C59.5 31.5523 59.0523 32 58.5 32H56.5" stroke="#8833FF" stroke-width="2" stroke-linecap="round" stroke-linejoin="round"/>
</svg>
