<svg width="85" height="55" viewBox="0 0 85 55" fill="none" xmlns="http://www.w3.org/2000/svg">
<path opacity="0.05" fill-rule="evenodd" clip-rule="evenodd" d="M27.5 55C42.6878 55 55 42.6878 55 27.5C55 12.3122 42.6878 0 27.5 0C12.3122 0 0 12.3122 0 27.5C0 42.6878 12.3122 55 27.5 55Z" fill="#FF6633"/>
<path opacity="0.05" fill-rule="evenodd" clip-rule="evenodd" d="M57.5 55C72.6878 55 85 42.6878 85 27.5C85 12.3122 72.6878 0 57.5 0C42.3122 0 30 12.3122 30 27.5C30 42.6878 42.3122 55 57.5 55Z" fill="#8833FF"/>
<path fill-rule="evenodd" clip-rule="evenodd" d="M40.5 23V15L47.5 18.6923L40.5 23Z" stroke="#8833FF" stroke-width="2" stroke-linecap="round" stroke-linejoin="round"/>
<rect x="22" y="6" width="42" height="31" rx="3" stroke="#FF6633" stroke-width="2" stroke-linecap="round" stroke-linejoin="round"/>
<path d="M47 43V37" stroke="#FF6633" stroke-width="2" stroke-linecap="round" stroke-linejoin="round"/>
<path d="M23 31.5H63" stroke="#FF6633" stroke-width="2" stroke-linecap="round" stroke-linejoin="round"/>
<path d="M35 43.5H51.5" stroke="#FF6633" stroke-width="2" stroke-linecap="round" stroke-linejoin="round"/>
<path d="M39.5 43V37" stroke="#FF6633" stroke-width="2" stroke-linecap="round" stroke-linejoin="round"/>
</svg>
