<svg width="21" height="22" viewBox="0 0 21 22" fill="none" xmlns="http://www.w3.org/2000/svg">
<path fill-rule="evenodd" clip-rule="evenodd" d="M1 19.1738H11C11.55 19.1738 12 19.6238 12 20.1738C12 20.7238 11.55 21.1738 11 21.1738H1C0.45 21.1738 0 20.7238 0 20.1738C0 19.6238 0.45 19.1738 1 19.1738ZM4.24 6.24376L7.07 3.41376L19.8 16.1438C20.58 16.9238 20.58 18.1938 19.8 18.9738C19.02 19.7538 17.75 19.7538 16.97 18.9738L4.24 6.24376ZM12.73 0.583756L15.56 3.41376C16.34 4.19376 16.34 5.46376 15.56 6.24376L14.14 7.66376L8.49 2.00376L9.9 0.593756C10.68 -0.196244 11.95 -0.196244 12.73 0.583756ZM2.83 7.65376L8.49 13.3138L7.08 14.7238C6.3 15.5038 5.03 15.5038 4.25 14.7238L1.42 11.8938C0.64 11.1138 0.64 9.84376 1.42 9.06376L2.83 7.65376Z" fill="#C3CAD9"/>
</svg>
