<svg width="20" height="12" viewBox="0 0 20 12" fill="none" xmlns="http://www.w3.org/2000/svg">
<path fill-rule="evenodd" clip-rule="evenodd" d="M6.2825 9.4925L2.3825 5.5925L6.2825 1.6925C6.6725 1.3025 6.6725 0.6825 6.2825 0.2925C6.09765 0.105352 5.84555 1.82598e-05 5.5825 1.82598e-05C5.31945 1.82598e-05 5.06735 0.105352 4.8825 0.2925L0.2925 4.8825C-0.0975 5.2725 -0.0975 5.9025 0.2925 6.2925L4.8825 10.8925C5.2725 11.2825 5.8925 11.2825 6.2825 10.8925C6.6725 10.5025 6.6725 9.8825 6.2825 9.4925ZM12.8825 9.4925L16.7825 5.5925L12.8825 1.6925C12.6954 1.50765 12.59 1.25555 12.59 0.9925C12.59 0.72945 12.6954 0.477354 12.8825 0.2925C13.2725 -0.0975 13.8925 -0.0975 14.2825 0.2925L18.8725 4.8825C19.2625 5.2725 19.2625 5.9025 18.8725 6.2925L14.2825 10.8925C13.8925 11.2825 13.2725 11.2825 12.8825 10.8925C12.6954 10.7076 12.59 10.4556 12.59 10.1925C12.59 9.92945 12.6954 9.67735 12.8825 9.4925Z" fill="#33BFFF"/>
<mask id="mask0_52_262" style="mask-type:alpha" maskUnits="userSpaceOnUse" x="0" y="0" width="20" height="12">
<path fill-rule="evenodd" clip-rule="evenodd" d="M6.2825 9.4925L2.3825 5.5925L6.2825 1.6925C6.6725 1.3025 6.6725 0.6825 6.2825 0.2925C6.09765 0.105352 5.84555 1.82598e-05 5.5825 1.82598e-05C5.31945 1.82598e-05 5.06735 0.105352 4.8825 0.2925L0.2925 4.8825C-0.0975 5.2725 -0.0975 5.9025 0.2925 6.2925L4.8825 10.8925C5.2725 11.2825 5.8925 11.2825 6.2825 10.8925C6.6725 10.5025 6.6725 9.8825 6.2825 9.4925ZM12.8825 9.4925L16.7825 5.5925L12.8825 1.6925C12.6954 1.50765 12.59 1.25555 12.59 0.9925C12.59 0.72945 12.6954 0.477354 12.8825 0.2925C13.2725 -0.0975 13.8925 -0.0975 14.2825 0.2925L18.8725 4.8825C19.2625 5.2725 19.2625 5.9025 18.8725 6.2925L14.2825 10.8925C13.8925 11.2825 13.2725 11.2825 12.8825 10.8925C12.6954 10.7076 12.59 10.4556 12.59 10.1925C12.59 9.92945 12.6954 9.67735 12.8825 9.4925Z" fill="white"/>
</mask>
<g mask="url(#mask0_52_262)">
</g>
</svg>
