<svg width="21" height="16" viewBox="0 0 21 16" fill="none" xmlns="http://www.w3.org/2000/svg">
<path fill-rule="evenodd" clip-rule="evenodd" d="M14.2575 0.53523C14.0875 0.53523 13.9375 0.62523 13.8475 0.76523L13.7775 0.91523L8.59754 12.5652C8.43754 12.8552 8.33754 13.1752 8.33754 13.5252C8.33754 14.6352 9.23754 15.5352 10.3475 15.5352C11.3075 15.5352 12.1175 14.8552 12.3075 13.9452L12.3175 13.9152L14.7575 1.03523C14.7575 0.75523 14.5375 0.53523 14.2575 0.53523V0.53523ZM0.417538 5.59523C0.927538 6.10523 1.74754 6.14523 2.30754 5.68523C5.06754 3.42523 8.54754 2.50523 11.8875 2.92523L13.0775 0.24523C8.72754 -0.534769 4.11754 0.54523 0.507538 3.49523C-0.132462 4.02523 -0.172462 5.00523 0.417538 5.59523ZM20.2975 5.59523C20.8875 5.00523 20.8475 4.02523 20.1975 3.49523C18.8375 2.38523 17.3375 1.54523 15.7575 0.96523L15.2275 3.78523C16.3575 4.25523 17.4175 4.87523 18.3975 5.67523C18.9775 6.13523 19.7875 6.10523 20.2975 5.59523V5.59523ZM16.2675 9.62523C16.8675 9.02523 16.8275 7.99523 16.1275 7.50523C15.6675 7.17523 15.1875 6.89523 14.6875 6.64523L14.1375 9.56523C14.2475 9.63523 14.3575 9.70523 14.4575 9.78523C15.0275 10.1852 15.7875 10.1052 16.2675 9.62523V9.62523ZM4.43754 9.61523C4.93754 10.1152 5.70754 10.1552 6.28754 9.74523C7.22754 9.08523 8.29754 8.68523 9.38754 8.52523L10.6675 5.64523C8.53754 5.58523 6.38754 6.18523 4.57754 7.48523C3.88754 7.99523 3.83754 9.01523 4.43754 9.61523Z" fill="#33BFFF"/>
<mask id="mask0_52_104" style="mask-type:alpha" maskUnits="userSpaceOnUse" x="0" y="0" width="21" height="16">
<path fill-rule="evenodd" clip-rule="evenodd" d="M14.2575 0.53523C14.0875 0.53523 13.9375 0.62523 13.8475 0.76523L13.7775 0.91523L8.59754 12.5652C8.43754 12.8552 8.33754 13.1752 8.33754 13.5252C8.33754 14.6352 9.23754 15.5352 10.3475 15.5352C11.3075 15.5352 12.1175 14.8552 12.3075 13.9452L12.3175 13.9152L14.7575 1.03523C14.7575 0.75523 14.5375 0.53523 14.2575 0.53523V0.53523ZM0.417538 5.59523C0.927538 6.10523 1.74754 6.14523 2.30754 5.68523C5.06754 3.42523 8.54754 2.50523 11.8875 2.92523L13.0775 0.24523C8.72754 -0.534769 4.11754 0.54523 0.507538 3.49523C-0.132462 4.02523 -0.172462 5.00523 0.417538 5.59523ZM20.2975 5.59523C20.8875 5.00523 20.8475 4.02523 20.1975 3.49523C18.8375 2.38523 17.3375 1.54523 15.7575 0.96523L15.2275 3.78523C16.3575 4.25523 17.4175 4.87523 18.3975 5.67523C18.9775 6.13523 19.7875 6.10523 20.2975 5.59523V5.59523ZM16.2675 9.62523C16.8675 9.02523 16.8275 7.99523 16.1275 7.50523C15.6675 7.17523 15.1875 6.89523 14.6875 6.64523L14.1375 9.56523C14.2475 9.63523 14.3575 9.70523 14.4575 9.78523C15.0275 10.1852 15.7875 10.1052 16.2675 9.62523V9.62523ZM4.43754 9.61523C4.93754 10.1152 5.70754 10.1552 6.28754 9.74523C7.22754 9.08523 8.29754 8.68523 9.38754 8.52523L10.6675 5.64523C8.53754 5.58523 6.38754 6.18523 4.57754 7.48523C3.88754 7.99523 3.83754 9.01523 4.43754 9.61523Z" fill="white"/>
</mask>
<g mask="url(#mask0_52_104)">
</g>
</svg>
