<svg width="20" height="13" viewBox="0 0 20 13" fill="none" xmlns="http://www.w3.org/2000/svg">
<path fill-rule="evenodd" clip-rule="evenodd" d="M7.01 8.29153H1C0.45 8.29153 0 8.74153 0 9.29153C0 9.84153 0.45 10.2915 1 10.2915H7.01V12.0815C7.01 12.5315 7.55 12.7515 7.86 12.4315L10.64 9.64153C10.83 9.44153 10.83 9.13153 10.64 8.93153L7.86 6.14153C7.55 5.82153 7.01 6.05153 7.01 6.49153V8.29153ZM12.99 6.08153V4.29153H19C19.55 4.29153 20 3.84153 20 3.29153C20 2.74153 19.55 2.29153 19 2.29153H12.99V0.501534C12.99 0.0515344 12.45 -0.168466 12.14 0.151534L9.36 2.94153C9.17 3.14153 9.17 3.45153 9.36 3.65153L12.14 6.44153C12.45 6.75153 12.99 6.53153 12.99 6.08153Z" fill="#E62E7B"/>
<mask id="mask0_52_206" style="mask-type:alpha" maskUnits="userSpaceOnUse" x="0" y="0" width="20" height="13">
<path fill-rule="evenodd" clip-rule="evenodd" d="M7.01 8.29153H1C0.45 8.29153 0 8.74153 0 9.29153C0 9.84153 0.45 10.2915 1 10.2915H7.01V12.0815C7.01 12.5315 7.55 12.7515 7.86 12.4315L10.64 9.64153C10.83 9.44153 10.83 9.13153 10.64 8.93153L7.86 6.14153C7.55 5.82153 7.01 6.05153 7.01 6.49153V8.29153ZM12.99 6.08153V4.29153H19C19.55 4.29153 20 3.84153 20 3.29153C20 2.74153 19.55 2.29153 19 2.29153H12.99V0.501534C12.99 0.0515344 12.45 -0.168466 12.14 0.151534L9.36 2.94153C9.17 3.14153 9.17 3.45153 9.36 3.65153L12.14 6.44153C12.45 6.75153 12.99 6.53153 12.99 6.08153Z" fill="white"/>
</mask>
<g mask="url(#mask0_52_206)">
</g>
</svg>
