<svg width="117" height="117" viewBox="0 0 117 117" fill="none" xmlns="http://www.w3.org/2000/svg">
<path opacity="0.1" fill-rule="evenodd" clip-rule="evenodd" d="M58.5 116C90.2564 116 116 90.2564 116 58.5C116 26.7436 90.2564 1 58.5 1C26.7436 1 1 26.7436 1 58.5C1 90.2564 26.7436 116 58.5 116Z" stroke="#FF6633" stroke-width="2" stroke-linecap="round" stroke-linejoin="round"/>
<path opacity="0.1" fill-rule="evenodd" clip-rule="evenodd" d="M59 67C67.2843 67 74 60.2843 74 52C74 43.7157 67.2843 37 59 37C50.7157 37 44 43.7157 44 52C44 60.2843 50.7157 67 59 67Z" fill="#FF6633"/>
<path d="M72.2205 59.0927C73.3559 56.9809 74 54.5657 74 52C74 43.7157 67.2843 37 59 37C50.7157 37 44 43.7157 44 52C44 55.019 44.8919 57.8297 46.4266 60.183" stroke="#FF6633" stroke-width="2" stroke-linecap="round" stroke-linejoin="round"/>
<path d="M48 67.5L50.0206 65.732C51.2967 64.6154 52.9346 64 54.6301 64H66.3981C67.8911 64 69.1568 65.0978 69.368 66.5757L69.5 67.5" stroke="#FF6633" stroke-width="2" stroke-linecap="round" stroke-linejoin="round"/>
<path d="M58.5 46V44" stroke="#FF6633" stroke-width="2" stroke-linecap="round" stroke-linejoin="round"/>
<path d="M55.5 56L56.75 57.25C57.7165 58.2165 59.2835 58.2165 60.25 57.25V57.25C61.2165 56.2835 61.2165 54.7165 60.25 53.75L56.75 50.25C55.7835 49.2835 55.7835 47.7165 56.75 46.75V46.75C57.7165 45.7835 59.2835 45.7835 60.25 46.75L61 47.5" stroke="#FF6633" stroke-width="2" stroke-linecap="round" stroke-linejoin="round"/>
<path d="M58.5 60V58" stroke="#FF6633" stroke-width="2" stroke-linecap="round" stroke-linejoin="round"/>
<path d="M50 79.5L52.0355 77.4645C52.9732 76.5268 54.245 76 55.5711 76H63.7583C67.1212 76 70.3533 74.6968 72.7757 72.3642L80.4682 64.9565C81.5841 63.882 81.6009 62.1009 80.5055 61.0055V61.0055C79.4059 59.9059 77.6165 59.9277 76.544 61.0538L70.569 67.3276C69.2478 68.7148 67.4157 69.5 65.5 69.5H60" stroke="#FF6633" stroke-width="2" stroke-linecap="round" stroke-linejoin="round"/>
</svg>
