<svg width="117" height="117" viewBox="0 0 117 117" fill="none" xmlns="http://www.w3.org/2000/svg">
<path opacity="0.1" fill-rule="evenodd" clip-rule="evenodd" d="M58.5 116C90.2564 116 116 90.2564 116 58.5C116 26.7436 90.2564 1 58.5 1C26.7436 1 1 26.7436 1 58.5C1 90.2564 26.7436 116 58.5 116Z" stroke="#29CC39" stroke-width="2" stroke-linecap="round" stroke-linejoin="round"/>
<path opacity="0.05" fill-rule="evenodd" clip-rule="evenodd" d="M58 52C61.3137 52 64 49.0899 64 45.5C64 41.9101 61.3137 39 58 39C54.6863 39 52 41.9101 52 45.5C52 49.0899 54.6863 52 58 52Z" fill="#29CC39"/>
<path fill-rule="evenodd" clip-rule="evenodd" d="M59 52C62.3137 52 65 49.0899 65 45.5C65 41.9101 62.3137 39 59 39C55.6863 39 53 41.9101 53 45.5C53 49.0899 55.6863 52 59 52Z" stroke="#29CC39" stroke-width="2" stroke-linecap="round" stroke-linejoin="round"/>
<path d="M64 50L69.2131 54.8121C70.0335 55.5693 70.5 56.6349 70.5 57.7513V62" stroke="#29CC39" stroke-width="2" stroke-linecap="round" stroke-linejoin="round"/>
<path d="M54.5 50L49.2869 54.8121C48.4665 55.5693 48 56.6349 48 57.7513V62" stroke="#29CC39" stroke-width="2" stroke-linecap="round" stroke-linejoin="round"/>
<path opacity="0.05" fill-rule="evenodd" clip-rule="evenodd" d="M49 63C48.4477 63 48 62.5523 48 62V58.7513C48 57.7094 48.4064 56.7116 49.1276 55.9676L49.2869 55.8121L53.6381 51.7956C54.1923 51.2841 54.9188 51 55.673 51H62.327C63.0812 51 63.8077 51.2841 64.3619 51.7956L68.7131 55.8121C69.5334 56.5693 70 57.6349 70 58.7513V62C70 62.5523 69.5523 63 69 63H49Z" fill="#29CC39"/>
<path fill-rule="evenodd" clip-rule="evenodd" d="M44.281 64.2481C44.1318 63.0544 45.0626 62 46.2656 62H71.7344C72.9374 62 73.8682 63.0544 73.719 64.2481L72.219 76.2481C72.0939 77.2489 71.2431 78 70.2344 78H47.7656C46.7569 78 45.9061 77.2489 45.781 76.2481L44.281 64.2481Z" stroke="#29CC39" stroke-width="2" stroke-linecap="round" stroke-linejoin="round"/>
<path fill-rule="evenodd" clip-rule="evenodd" d="M59 73C60.6569 73 62 71.6569 62 70C62 68.3431 60.6569 67 59 67C57.3431 67 56 68.3431 56 70C56 71.6569 57.3431 73 59 73Z" stroke="#29CC39" stroke-width="2" stroke-linecap="round" stroke-linejoin="round"/>
<path fill-rule="evenodd" clip-rule="evenodd" d="M67 48C68.1046 48 69 46.8807 69 45.5C69 44.1193 68.1046 43 67 43C65.8954 43 65 44.1193 65 45.5C65 46.8807 65.8954 48 67 48Z" stroke="#29CC39" stroke-width="2" stroke-linecap="round" stroke-linejoin="round"/>
<path d="M67 42C66.0786 37.9739 62.8398 35 58.9856 35C55.1706 35 51.9585 37.9137 51 41.8775" stroke="#29CC39" stroke-width="2" stroke-linecap="round" stroke-linejoin="round"/>
<path fill-rule="evenodd" clip-rule="evenodd" d="M51 48C52.1046 48 53 46.8807 53 45.5C53 44.1193 52.1046 43 51 43C49.8954 43 49 44.1193 49 45.5C49 46.8807 49.8954 48 51 48Z" stroke="#29CC39" stroke-width="2" stroke-linecap="round" stroke-linejoin="round"/>
</svg>
