<svg width="117" height="117" viewBox="0 0 117 117" fill="none" xmlns="http://www.w3.org/2000/svg">
<path opacity="0.1" fill-rule="evenodd" clip-rule="evenodd" d="M58.5 116C90.2564 116 116 90.2564 116 58.5C116 26.7436 90.2564 1 58.5 1C26.7436 1 1 26.7436 1 58.5C1 90.2564 26.7436 116 58.5 116Z" stroke="#3361FF" stroke-width="2" stroke-linecap="round" stroke-linejoin="round"/>
<path opacity="0.05" d="M70 50.0504V38C70 35.2386 67.7614 33 65 33H49.2931C47.9298 33 46.6256 33.5567 45.6825 34.5411L39.3894 41.1103C38.4978 42.0411 38 43.2802 38 44.5692V78C38 80.7614 40.2386 83 43 83H65C67.7614 83 70 80.7614 70 78V67.6197V50.0504Z" fill="#3361FF"/>
<path d="M73.6405 48.8539V41.3486C73.6405 40.2441 72.745 39.3486 71.6405 39.3486L55.5803 39.3486C55.0499 39.3486 54.5412 39.5593 54.1661 39.9344L46.0827 45.0179C45.7076 45.3929 45.4969 45.9017 45.4969 46.4321V79.0647C45.4969 80.1693 46.3923 81.0647 47.4969 81.0647H71.6405C72.745 81.0647 73.6405 80.1693 73.6405 79.0647V73.8616" stroke="#3361FF" stroke-width="2" stroke-linecap="round" stroke-linejoin="round"/>
<path d="M46.6945 45.9226C46.7127 45.9226 51.3867 45.9226 54.157 45.9226C55.2615 45.9226 56.1542 45.0272 56.1542 43.9226V39.5393" stroke="#3361FF" stroke-width="2" stroke-linecap="round" stroke-linejoin="round"/>
<path d="M49.7978 54.5055H64.9663" stroke="#3361FF" stroke-width="2" stroke-linecap="round" stroke-linejoin="round"/>
<path d="M49.7978 60.1237H61.5955" stroke="#3361FF" stroke-width="2" stroke-linecap="round" stroke-linejoin="round"/>
<path d="M49.7978 65.7416H59.3483" stroke="#3361FF" stroke-width="2" stroke-linecap="round" stroke-linejoin="round"/>
<path d="M49.7978 70.7977H53.7303" stroke="#3361FF" stroke-width="2" stroke-linecap="round" stroke-linejoin="round"/>
<path opacity="0.1" d="M85.1121 47C84.0116 47 83.0108 47.436 82.2766 48.1425C82.1933 48.2226 82.1134 48.3063 82.0371 48.3932C82.0129 48.4187 81.9899 48.4456 81.9682 48.4738C81.8866 48.5719 81.8093 48.674 81.737 48.7796L67.2892 67.8806C66.7869 68.5447 66.4284 69.306 66.2363 70.1162L65.027 75.218C64.9406 75.5824 65.0651 75.9645 65.3495 76.2081C65.6339 76.4518 66.0307 76.516 66.3775 76.3747L70.7198 74.6047C71.6771 74.2145 72.5174 73.5836 73.1591 72.7731L88.2628 53.6977C88.3044 53.6476 88.3447 53.5964 88.3839 53.5443C88.8973 52.8607 89.202 52.0094 89.202 51.0899C89.202 48.8311 87.3709 47 85.1121 47Z" fill="#3361FF"/>
<path d="M85.6969 51.3034L70.4877 70.5119C69.9529 71.1873 69.2527 71.7131 68.455 72.0383L64.1126 73.8083L65.322 68.7065C65.482 68.0313 65.7808 67.3969 66.1994 66.8435L80.8743 47.4421" stroke="#3361FF" stroke-width="2" stroke-linecap="round" stroke-linejoin="round"/>
<path d="M85.6969 51.3034C86.0848 50.787 86.3146 50.1451 86.3146 49.4495C86.3146 47.743 84.9312 46.3596 83.2247 46.3596C82.393 46.3596 81.638 46.6882 81.0825 47.2227C80.4983 47.7849 80 48.5 79.5 49.5" stroke="#3361FF" stroke-width="2"/>
<path d="M79.4525 49.4851L84.2007 53.3037" stroke="#3361FF" stroke-width="2"/>
</svg>
