<svg width="117" height="117" viewBox="0 0 117 117" fill="none" xmlns="http://www.w3.org/2000/svg">
<path opacity="0.1" fill-rule="evenodd" clip-rule="evenodd" d="M58.5 116C90.2564 116 116 90.2564 116 58.5C116 26.7436 90.2564 1 58.5 1C26.7436 1 1 26.7436 1 58.5C1 90.2564 26.7436 116 58.5 116Z" stroke="#8833FF" stroke-width="2" stroke-linecap="round" stroke-linejoin="round"/>
<path d="M54.9597 64.3417C52.1522 64.1218 47.6527 63.1458 41.4612 61.4138C40.5973 61.1721 40 60.3848 40 59.4877V51C40 49.8954 40.8954 49 42 49C51.5556 49 58.7222 49 63.5 49" stroke="#8833FF" stroke-width="2" stroke-linecap="round" stroke-linejoin="round"/>
<path d="M78 54.5C78 55.608 78 57.2701 78 59.4862C78 60.384 77.4018 61.1718 76.537 61.4128C70.8326 63.0025 66.5415 63.9581 63.6637 64.2794" stroke="#8833FF" stroke-width="2" stroke-linecap="round" stroke-linejoin="round"/>
<path d="M53 49V46C53 44.3431 54.3431 43 56 43H62" stroke="#8833FF" stroke-width="2" stroke-linecap="round" stroke-linejoin="round"/>
<rect x="55" y="62" width="8" height="5" rx="2" stroke="#8833FF" stroke-width="2" stroke-linecap="round" stroke-linejoin="round"/>
<path d="M76 62V74C76 75.6569 74.6569 77 73 77H45C43.3431 77 42 75.6569 42 74V62" stroke="#8833FF" stroke-width="2" stroke-linecap="round" stroke-linejoin="round"/>
<path d="M70 43.5L72.5 46L78 41" stroke="#8833FF" stroke-width="2" stroke-linecap="round" stroke-linejoin="round"/>
<path opacity="0.05" fill-rule="evenodd" clip-rule="evenodd" d="M74 55C80.6274 55 86 49.6274 86 43C86 36.3726 80.6274 31 74 31C67.3726 31 62 36.3726 62 43C62 49.6274 67.3726 55 74 55Z" fill="#8833FF"/>
<path fill-rule="evenodd" clip-rule="evenodd" d="M74 55C80.6274 55 86 49.6274 86 43C86 36.3726 80.6274 31 74 31C67.3726 31 62 36.3726 62 43C62 49.6274 67.3726 55 74 55Z" stroke="#8833FF" stroke-width="2" stroke-linecap="round" stroke-linejoin="round"/>
</svg>
